<mxfile host="app.diagrams.net" modified="2024-02-10T22:13:41.197Z" agent="Mozilla/5.0 (Windows NT 10.0; Win64; x64) AppleWebKit/537.36 (KHTML, like Gecko) Chrome/121.0.0.0 Safari/537.36" etag="xtwxtangHJR_x31gHQAh" version="23.1.2" type="device">
  <diagram name="Page-1" id="l78l5fjevzqeFhX4px8t">
    <mxGraphModel dx="882" dy="560" grid="1" gridSize="10" guides="1" tooltips="1" connect="1" arrows="1" fold="1" page="1" pageScale="1" pageWidth="850" pageHeight="1100" math="0" shadow="0">
      <root>
        <mxCell id="0" />
        <mxCell id="1" parent="0" />
        <mxCell id="7drsRbpedGrWnZU5sTcZ-15" value="" style="edgeStyle=orthogonalEdgeStyle;rounded=0;orthogonalLoop=1;jettySize=auto;html=1;" edge="1" parent="1" source="7drsRbpedGrWnZU5sTcZ-13" target="7drsRbpedGrWnZU5sTcZ-14">
          <mxGeometry relative="1" as="geometry" />
        </mxCell>
        <mxCell id="7drsRbpedGrWnZU5sTcZ-13" value="Start" style="ellipse;whiteSpace=wrap;html=1;" vertex="1" parent="1">
          <mxGeometry x="80" y="220" width="120" height="80" as="geometry" />
        </mxCell>
        <mxCell id="7drsRbpedGrWnZU5sTcZ-17" value="" style="edgeStyle=orthogonalEdgeStyle;rounded=0;orthogonalLoop=1;jettySize=auto;html=1;" edge="1" parent="1" source="7drsRbpedGrWnZU5sTcZ-14" target="7drsRbpedGrWnZU5sTcZ-16">
          <mxGeometry relative="1" as="geometry" />
        </mxCell>
        <mxCell id="7drsRbpedGrWnZU5sTcZ-14" value="Use namespace std" style="whiteSpace=wrap;html=1;" vertex="1" parent="1">
          <mxGeometry x="80" y="390" width="120" height="60" as="geometry" />
        </mxCell>
        <mxCell id="7drsRbpedGrWnZU5sTcZ-19" value="" style="edgeStyle=orthogonalEdgeStyle;rounded=0;orthogonalLoop=1;jettySize=auto;html=1;" edge="1" parent="1" source="7drsRbpedGrWnZU5sTcZ-16" target="7drsRbpedGrWnZU5sTcZ-18">
          <mxGeometry relative="1" as="geometry" />
        </mxCell>
        <mxCell id="7drsRbpedGrWnZU5sTcZ-16" value="Print Tree" style="shape=parallelogram;perimeter=parallelogramPerimeter;whiteSpace=wrap;html=1;fixedSize=1;" vertex="1" parent="1">
          <mxGeometry x="80" y="530" width="120" height="60" as="geometry" />
        </mxCell>
        <mxCell id="7drsRbpedGrWnZU5sTcZ-21" value="" style="edgeStyle=orthogonalEdgeStyle;rounded=0;orthogonalLoop=1;jettySize=auto;html=1;" edge="1" parent="1" source="7drsRbpedGrWnZU5sTcZ-18" target="7drsRbpedGrWnZU5sTcZ-20">
          <mxGeometry relative="1" as="geometry" />
        </mxCell>
        <mxCell id="7drsRbpedGrWnZU5sTcZ-18" value="Print 2 lines whitespace" style="shape=parallelogram;perimeter=parallelogramPerimeter;whiteSpace=wrap;html=1;fixedSize=1;" vertex="1" parent="1">
          <mxGeometry x="80" y="670" width="120" height="60" as="geometry" />
        </mxCell>
        <mxCell id="7drsRbpedGrWnZU5sTcZ-26" value="" style="edgeStyle=orthogonalEdgeStyle;rounded=0;orthogonalLoop=1;jettySize=auto;html=1;" edge="1" parent="1" source="7drsRbpedGrWnZU5sTcZ-20">
          <mxGeometry relative="1" as="geometry">
            <mxPoint x="140" y="980" as="targetPoint" />
          </mxGeometry>
        </mxCell>
        <mxCell id="7drsRbpedGrWnZU5sTcZ-20" value="Print Cat" style="shape=parallelogram;perimeter=parallelogramPerimeter;whiteSpace=wrap;html=1;fixedSize=1;" vertex="1" parent="1">
          <mxGeometry x="80" y="810" width="120" height="60" as="geometry" />
        </mxCell>
        <mxCell id="7drsRbpedGrWnZU5sTcZ-27" value="Return 0" style="ellipse;whiteSpace=wrap;html=1;" vertex="1" parent="1">
          <mxGeometry x="80" y="980" width="120" height="80" as="geometry" />
        </mxCell>
      </root>
    </mxGraphModel>
  </diagram>
</mxfile>
